<?xml version="1.0" encoding="utf-8"?>
<!-- Generator: Adobe Illustrator 23.0.1, SVG Export Plug-In . SVG Version: 6.00 Build 0)  -->
<svg version="1.1" id="Layer_1" xmlns="http://www.w3.org/2000/svg" xmlns:xlink="http://www.w3.org/1999/xlink" x="0px" y="0px"
	 viewBox="0 0 274.59 53.01" style="enable-background:new 0 0 274.59 53.01;" xml:space="preserve">
<style type="text/css">
	.st0{fill:#FFFFFF;}
	.st1{fill-rule:evenodd;clip-rule:evenodd;fill:url(#SVGID_1_);}
	.st2{fill-rule:evenodd;clip-rule:evenodd;fill:url(#SVGID_2_);}
	.st3{fill-rule:evenodd;clip-rule:evenodd;fill:url(#SVGID_3_);}
	.st4{fill-rule:evenodd;clip-rule:evenodd;fill:url(#SVGID_4_);}
</style>
<g>
	<path class="st0" d="M268.74,27.08h-7.21c0.23-2.45,1.68-4.17,3.95-4.17c2.18,0,3.31,1.5,3.31,3.45
		C268.78,26.63,268.78,26.81,268.74,27.08z M265.61,40.42c4.13,0,7.89-1.5,8.98-5.76l-5.17-1.77c-0.68,2.22-2.04,2.86-3.67,2.86
		c-2.77,0-4.26-2.09-4.4-5.31h12.93c0.18-0.86,0.27-1.81,0.27-2.72c0-5.4-2.9-9.3-8.85-9.3c-6.31,0-10.21,4.08-10.21,11.3
		C255.49,36.47,259.62,40.42,265.61,40.42z M243.4,36.06c-1.77,0-3.99-1.18-3.99-4.76v-3.08c0-3.18,2.18-4.94,4.4-4.94
		c2.68,0,4.35,1.81,4.35,6.17C248.17,33.88,245.99,36.06,243.4,36.06z M245.35,40.42c5.67,0,8.94-4.63,8.94-11.52
		c0-6.67-2.95-10.48-8.07-10.48c-2.99,0-5.62,1.22-6.76,4.4V9.57h-6.08v30.3h4.26l1.5-3.04C239.77,38.83,241.77,40.42,245.35,40.42z
		 M221.13,35.7c-2.86,0-4.17-2-4.17-6.35c0-4.13,1.36-6.08,4.17-6.08c2.77,0,4.13,1.95,4.13,6.08
		C225.26,33.7,223.95,35.7,221.13,35.7z M221.13,40.42c6.08,0,10.12-3.99,10.12-11.07c0-7.12-4.04-10.93-10.12-10.93
		c-6.12,0-10.16,3.81-10.16,10.93C210.97,36.42,215.01,40.42,221.13,40.42z M205.15,40.28c1.18,0,2.31-0.23,3.49-0.54l0.32-5.08
		c-0.54,0.23-1.09,0.32-1.63,0.32c-1.09,0-1.91-0.5-1.91-1.81V9.57h-6.08v25.36C199.34,38.87,202.11,40.28,205.15,40.28z
		 M186.52,45.41c-3.22,0-4.9-0.77-4.9-2.4c0-1.22,1.22-1.81,2.95-1.81h5.17c1.81,0,2.59,0.5,2.59,1.77
		C192.33,44.64,190.74,45.41,186.52,45.41z M186.66,29.03c-2.13,0-3.18-1.36-3.18-3.22c0-2.09,1.04-3.22,3.18-3.27
		c2.09,0,3.22,1.04,3.22,3.27C189.88,27.9,188.74,29.03,186.66,29.03z M185.84,49.44c5.99,0,12.16-1.54,12.16-7.53
		c0-3.63-2.68-6.17-7.39-6.17h-5.99c-1.09,0-1.68-0.54-1.68-1.27c0-0.68,0.27-1.27,1-1.72c0.5,0.18,1.54,0.27,2.54,0.27
		c5.35,0,9.62-2.36,9.62-7.21c0-1.45-0.32-2.72-0.95-3.72c1.72-0.5,3.58-1.91,3.81-3.95l-4.76-1.59c-0.45,1.68-0.68,2.27-1.59,3.18
		c-1.54-0.86-3.58-1.32-5.94-1.32c-5.58,0-9.3,2.54-9.3,7.39c0,3.36,1.5,5.17,4.35,6.31c-2.45,0.68-3.54,2.49-3.54,4.13
		c0,1.86,1.32,3.58,3.4,3.72c-3.77,0.27-5.53,1.77-5.53,4.22C176.04,48.22,180.67,49.44,185.84,49.44z M165.16,36.06
		c-1.77,0-3.99-1.18-3.99-4.76v-3.08c0-3.18,2.18-4.94,4.4-4.94c2.68,0,4.35,1.81,4.35,6.17C169.92,33.88,167.74,36.06,165.16,36.06
		z M167.11,40.42c5.67,0,8.94-4.63,8.94-11.52c0-6.67-2.95-10.48-8.07-10.48c-2.99,0-5.62,1.22-6.76,4.4V9.57h-6.08v30.3h4.26
		l1.5-3.04C161.53,38.83,163.52,40.42,167.11,40.42z M147.27,27.08h-7.21c0.23-2.45,1.68-4.17,3.95-4.17c2.18,0,3.31,1.5,3.31,3.45
		C147.32,26.63,147.32,26.81,147.27,27.08z M144.14,40.42c4.13,0,7.89-1.5,8.98-5.76l-5.17-1.77c-0.68,2.22-2.04,2.86-3.67,2.86
		c-2.77,0-4.26-2.09-4.4-5.31h12.93c0.18-0.86,0.27-1.81,0.27-2.72c0-5.4-2.9-9.3-8.85-9.3c-6.31,0-10.21,4.08-10.21,11.3
		C134.03,36.47,138.16,40.42,144.14,40.42z M111.91,39.87l3.18-13.16c0.91-3.81,1.13-7.53,1.13-7.53h0.18c0,0,0.18,3.72,1.04,7.48
		l3.04,13.2h8.98l5.85-26.72h-6.26l-2.99,14.74c-0.77,3.72-1.13,7.53-1.13,7.53h-0.18c0,0-0.45-3.77-1.27-7.58l-3.31-14.7h-7.35
		l-3.27,14.74c-0.77,3.72-1.18,7.53-1.18,7.53h-0.18c0,0-0.41-3.77-1.22-7.58l-3.08-14.7h-6.53l5.9,26.72H111.91z"/>
</g>
<g>
	<linearGradient id="SVGID_1_" gradientUnits="userSpaceOnUse" x1="4.3677" y1="1.1732" x2="20.725" y2="33.2761">
		<stop  offset="0.0652" style="stop-color:#4BEAFB"/>
		<stop  offset="0.2506" style="stop-color:#49E5F5"/>
		<stop  offset="0.493" style="stop-color:#44D5E5"/>
		<stop  offset="0.7657" style="stop-color:#3CBCCA"/>
		<stop  offset="0.9" style="stop-color:#37ADBA"/>
	</linearGradient>
	<path class="st1" d="M16.26,4.89l9.77,20.03L18.33,40.7c-1.18,2.43-1.12,5.14-0.05,7.41L0.87,12.4C-1.2,8.15,0.56,3.02,4.81,0.95
		S14.18,0.64,16.26,4.89z"/>
	<linearGradient id="SVGID_2_" gradientUnits="userSpaceOnUse" x1="13.339" y1="39.5998" x2="45.5658" y2="20.9936">
		<stop  offset="0" style="stop-color:#00D1FF"/>
		<stop  offset="0.1678" style="stop-color:#00CAF8"/>
		<stop  offset="0.4164" style="stop-color:#00B8E4"/>
		<stop  offset="0.7136" style="stop-color:#009AC3"/>
		<stop  offset="0.9" style="stop-color:#0084AB"/>
	</linearGradient>
	<path class="st2" d="M36.01,4.45l0.01,0.01c-1.28,2.35-1.45,5.27-0.18,7.86l7.69,15.77L33.72,48.2c-2.03,4.17-7.01,5.95-11.21,4.05
		l-0.24-0.11c-4.25-2.07-6.01-7.2-3.94-11.45L36.01,4.45z"/>
	<linearGradient id="SVGID_3_" gradientUnits="userSpaceOnUse" x1="32.0139" y1="8.9726" x2="63.7266" y2="35.5827">
		<stop  offset="0" style="stop-color:#006AB7"/>
		<stop  offset="0.1904" style="stop-color:#0168B3"/>
		<stop  offset="0.3941" style="stop-color:#0361A6"/>
		<stop  offset="0.604" style="stop-color:#085590"/>
		<stop  offset="0.817" style="stop-color:#0D4573"/>
		<stop  offset="0.9" style="stop-color:#103D65"/>
	</linearGradient>
	<path class="st3" d="M51.23,4.81l9.8,20.1L53.34,40.7c-1.18,2.41-1.12,5.1-0.07,7.36L35.84,12.32c-2.07-4.25-0.31-9.37,3.94-11.45
		C44.03-1.2,49.15,0.57,51.23,4.81z"/>
	<linearGradient id="SVGID_4_" gradientUnits="userSpaceOnUse" x1="55.5433" y1="51.1664" x2="84.0165" y2="1.8494">
		<stop  offset="0" style="stop-color:#FF6A1B"/>
		<stop  offset="0.1956" style="stop-color:#FE5219"/>
		<stop  offset="0.9" style="stop-color:#F90014"/>
	</linearGradient>
	<path class="st4" d="M70.84,4.81L53.34,40.7c-2.07,4.25-0.31,9.37,3.94,11.45c4.25,2.07,9.37,0.31,11.45-3.94l17.5-35.88
		c2.07-4.25,0.31-9.37-3.94-11.45C78.03-1.2,72.91,0.57,70.84,4.81z"/>
</g>
</svg>
